# xmcd
#
# Track frame offsets:
# 150
# 19937
# 36628
# 53732
# 73400
# 94112
# 113846
# 133363
# 152603
# 170601
#
# Disc length: 2555 seconds
#
#
# Revision: 0
# Processed by: cddbd v1.5.1PL2 Copyright (c) Steve Scherf et al.
# Submitted via: FreeRIP 2.942 
#
DISCID=9209f90a
DTITLE=Rod Stewart - A Tribute To Rod Stewart
DYEAR=1900
DGENRE=Pop
TTITLE0=Sailing
TTITLE1=Tonight's The Night
TTITLE2=The First Cut Is The Deepest
TTITLE3=You're In My Heart
TTITLE4=I Don't Want To Talk About It
TTITLE5=Baby Jane
TTITLE6=Forever Young
TTITLE7=Downtown Train
TTITLE8=Love Touch
TTITLE9=Young Turks
EXTD=
EXTT0=
EXTT1=
EXTT2=
EXTT3=
EXTT4=
EXTT5=
EXTT6=
EXTT7=
EXTT8=
EXTT9=
PLAYORDER=
